<svg width="35" height="43" viewBox="0 0 35 43" fill="none" xmlns="http://www.w3.org/2000/svg">
<path d="M26.3327 24.5V22.1667C26.3327 20.929 25.841 19.742 24.9658 18.8668C24.0907 17.9917 22.9037 17.5 21.666 17.5H12.3327C11.095 17.5 9.90802 17.9917 9.03285 18.8668C8.15768 19.742 7.66602 20.929 7.66602 22.1667V24.5" stroke="#20354E" stroke-width="2" stroke-linecap="round" stroke-linejoin="round"/>
<path d="M17.0007 12.8333C19.578 12.8333 21.6673 10.744 21.6673 8.16667C21.6673 5.58934 19.578 3.5 17.0007 3.5C14.4233 3.5 12.334 5.58934 12.334 8.16667C12.334 10.744 14.4233 12.8333 17.0007 12.8333Z" stroke="#20354E" stroke-width="2" stroke-linecap="round" stroke-linejoin="round"/>
<path d="M5.65918 41L4.87793 38.8418H1.91895L1.1377 41H0.429688L3.06641 33.9541H3.73047L6.3623 41H5.65918ZM3.38379 34.7793L2.11914 38.2656H4.67773L3.41309 34.7793H3.38379ZM11.04 37.5283H10.4053C10.2686 36.9033 9.75586 36.4102 8.95508 36.4102C7.96387 36.4102 7.31445 37.2061 7.31445 38.4609C7.31445 39.7354 7.96875 40.5117 8.95996 40.5117C9.72656 40.5117 10.2588 40.0869 10.4053 39.4277H11.0449C10.9033 40.3994 10.0781 41.083 8.95508 41.083C7.56836 41.083 6.65527 40.0869 6.65527 38.4609C6.65527 36.8594 7.56836 35.8389 8.9502 35.8389C10.1465 35.8389 10.9131 36.6201 11.04 37.5283ZM15.9814 37.5283H15.3467C15.21 36.9033 14.6973 36.4102 13.8965 36.4102C12.9053 36.4102 12.2559 37.2061 12.2559 38.4609C12.2559 39.7354 12.9102 40.5117 13.9014 40.5117C14.668 40.5117 15.2002 40.0869 15.3467 39.4277H15.9863C15.8447 40.3994 15.0195 41.083 13.8965 41.083C12.5098 41.083 11.5967 40.0869 11.5967 38.4609C11.5967 36.8594 12.5098 35.8389 13.8916 35.8389C15.0879 35.8389 15.8545 36.6201 15.9814 37.5283ZM18.8525 41.083C17.4707 41.083 16.5381 40.0723 16.5381 38.4609C16.5381 36.8447 17.4756 35.8389 18.8525 35.8389C20.2344 35.8389 21.167 36.8447 21.167 38.4609C21.167 40.0723 20.2344 41.083 18.8525 41.083ZM18.8525 40.5117C19.8486 40.5117 20.5127 39.75 20.5127 38.4609C20.5127 37.1719 19.8486 36.4102 18.8525 36.4102C17.8564 36.4102 17.1973 37.1719 17.1973 38.4609C17.1973 39.75 17.8564 40.5117 18.8525 40.5117ZM26.0986 35.9219V41H25.4883V40.0576H25.4736C25.2051 40.6826 24.5947 41.083 23.7891 41.083C22.6855 41.083 21.9971 40.3652 21.9971 39.2227V35.9219H22.6465V39.1104C22.6465 40.0088 23.125 40.5068 23.9746 40.5068C24.8584 40.5068 25.4541 39.8867 25.4541 38.9346V35.9219H26.0986ZM27.2119 41V35.9219H27.8223V36.8594H27.8369C28.0957 36.2441 28.6914 35.8389 29.5117 35.8389C30.625 35.8389 31.3086 36.5566 31.3086 37.709V41H30.6641V37.8115C30.6641 36.9229 30.1758 36.415 29.3262 36.415C28.4473 36.415 27.8564 37.0498 27.8564 37.9922V41H27.2119ZM32.6758 34.6523H33.3203V35.9219H34.3213V36.459H33.3203V39.7207C33.3203 40.2432 33.5254 40.4678 33.9941 40.4678C34.0625 40.4678 34.3066 40.458 34.3457 40.4482V41C34.2773 41.0146 34.0039 41.0293 33.8672 41.0293C33.0176 41.0293 32.6758 40.668 32.6758 39.75V36.459H31.9189V35.9219H32.6758V34.6523Z" fill="#20354E"/>
</svg>
