<svg width="34" height="43" viewBox="0 0 34 43" fill="none" xmlns="http://www.w3.org/2000/svg">
<path d="M17.0007 25.6666C23.444 25.6666 28.6673 20.4432 28.6673 13.9999C28.6673 7.5566 23.444 2.33325 17.0007 2.33325C10.5573 2.33325 5.33398 7.5566 5.33398 13.9999C5.33398 20.4432 10.5573 25.6666 17.0007 25.6666Z" stroke="#FFCE50" stroke-width="2" stroke-linecap="round" stroke-linejoin="round"/>
<path d="M17 9.33325V18.6666" stroke="#FFCE50" stroke-width="2" stroke-linecap="round" stroke-linejoin="round"/>
<path d="M12.334 14H21.6673" stroke="#FFCE50" stroke-width="2" stroke-linecap="round" stroke-linejoin="round"/>
<path d="M5.50098 41L4.71973 38.8418H1.76074L0.979492 41H0.271484L2.9082 33.9541H3.57227L6.2041 41H5.50098ZM3.22559 34.7793L1.96094 38.2656H4.51953L3.25488 34.7793H3.22559ZM8.66992 41.083C7.38574 41.083 6.49707 40.0381 6.49707 38.4609C6.49707 36.8789 7.38086 35.8389 8.65527 35.8389C9.47559 35.8389 10.125 36.3076 10.3936 36.9668H10.4082V33.9541H11.0576V41H10.4424V39.9258H10.4277C10.1396 40.6094 9.49023 41.083 8.66992 41.083ZM8.78223 36.4102C7.80566 36.4102 7.16113 37.2207 7.16113 38.4609C7.16113 39.7012 7.80566 40.5117 8.78223 40.5117C9.74902 40.5117 10.4131 39.6914 10.4131 38.4609C10.4131 37.2354 9.74902 36.4102 8.78223 36.4102ZM14.1387 41.083C12.8545 41.083 11.9658 40.0381 11.9658 38.4609C11.9658 36.8789 12.8496 35.8389 14.124 35.8389C14.9443 35.8389 15.5938 36.3076 15.8623 36.9668H15.877V33.9541H16.5264V41H15.9111V39.9258H15.8965C15.6084 40.6094 14.959 41.083 14.1387 41.083ZM14.251 36.4102C13.2744 36.4102 12.6299 37.2207 12.6299 38.4609C12.6299 39.7012 13.2744 40.5117 14.251 40.5117C15.2178 40.5117 15.8818 39.6914 15.8818 38.4609C15.8818 37.2354 15.2178 36.4102 14.251 36.4102ZM22.6982 41.1123C20.7793 41.1123 19.5586 39.6914 19.5586 37.46C19.5586 35.2529 20.7842 33.8418 22.6982 33.8418C24.1875 33.8418 25.3643 34.8135 25.5547 36.1904H24.8857C24.6904 35.1748 23.792 34.4619 22.6982 34.4619C21.2041 34.4619 20.2422 35.6289 20.2422 37.46C20.2422 39.3154 21.2041 40.4922 22.7031 40.4922C23.8262 40.4922 24.6758 39.8916 24.8857 38.915H25.5547C25.3057 40.2871 24.2266 41.1123 22.6982 41.1123ZM28.0742 40.5264C28.9629 40.5264 29.6611 39.8965 29.6611 39.0908V38.5293L28.1572 38.6318C27.3564 38.6855 26.9121 39.0322 26.9121 39.5938C26.9121 40.1455 27.3857 40.5264 28.0742 40.5264ZM27.9424 41.083C26.9414 41.083 26.2578 40.4824 26.2578 39.5938C26.2578 38.7246 26.9072 38.1973 28.0791 38.1191L29.6611 38.0215V37.582C29.6611 36.8496 29.1973 36.4102 28.4062 36.4102C27.6592 36.4102 27.1807 36.7764 27.0684 37.3916H26.4434C26.5166 36.4834 27.2637 35.8389 28.4209 35.8389C29.5781 35.8389 30.3057 36.4883 30.3057 37.5234V41H29.6904V40.0332H29.6758C29.3926 40.6631 28.6992 41.083 27.9424 41.083ZM31.3896 41V35.9219H32V36.8252H32.0146C32.2002 36.2051 32.6738 35.8389 33.2988 35.8389C33.4697 35.8389 33.6211 35.873 33.6992 35.8926V36.5273C33.6162 36.4883 33.4355 36.4541 33.2158 36.4541C32.4932 36.4541 32.0342 37.0156 32.0342 37.8359V41H31.3896Z" fill="#20354E"/>
</svg>
