<svg width="28" height="43" viewBox="0 0 28 43" fill="none" xmlns="http://www.w3.org/2000/svg">
<path d="M3.5 10.4999L14 2.33325L24.5 10.4999V23.3333C24.5 23.9521 24.2542 24.5456 23.8166 24.9832C23.379 25.4208 22.7855 25.6666 22.1667 25.6666H5.83333C5.21449 25.6666 4.621 25.4208 4.18342 24.9832C3.74583 24.5456 3.5 23.9521 3.5 23.3333V10.4999Z" stroke="#20354E" stroke-width="2" stroke-linecap="round" stroke-linejoin="round"/>
<path d="M10.5 25.6667V14H17.5V25.6667" stroke="#20354E" stroke-width="2" stroke-linecap="round" stroke-linejoin="round"/>
<path d="M7.6084 41H6.93945V37.6943H2.81836V41H2.1543V33.9541H2.81836V37.0889H6.93945V33.9541H7.6084V41ZM10.8896 41.083C9.50781 41.083 8.5752 40.0723 8.5752 38.4609C8.5752 36.8447 9.5127 35.8389 10.8896 35.8389C12.2715 35.8389 13.2041 36.8447 13.2041 38.4609C13.2041 40.0723 12.2715 41.083 10.8896 41.083ZM10.8896 40.5117C11.8857 40.5117 12.5498 39.75 12.5498 38.4609C12.5498 37.1719 11.8857 36.4102 10.8896 36.4102C9.89355 36.4102 9.23438 37.1719 9.23438 38.4609C9.23438 39.75 9.89355 40.5117 10.8896 40.5117ZM14.0635 41V35.9219H14.6738V36.8594H14.6885C14.9082 36.2637 15.4307 35.8389 16.168 35.8389C16.9102 35.8389 17.4473 36.2686 17.6377 36.9082H17.6523C17.8916 36.2832 18.4873 35.8389 19.2539 35.8389C20.2451 35.8389 20.8945 36.5029 20.8945 37.5283V41H20.25V37.6748C20.25 36.8887 19.8105 36.415 19.0732 36.415C18.3213 36.415 17.8037 36.9912 17.8037 37.8018V41H17.1543V37.6162C17.1543 36.8887 16.6855 36.415 15.9922 36.415C15.2451 36.415 14.708 37.0156 14.708 37.8799V41H14.0635ZM23.9902 36.4053C23.082 36.4053 22.4521 37.1035 22.3984 38.1045H25.5332C25.5186 37.1035 24.9082 36.4053 23.9902 36.4053ZM25.4941 39.5596H26.1338C25.9824 40.4385 25.1572 41.083 24.0391 41.083C22.6133 41.083 21.7295 40.0869 21.7295 38.4756C21.7295 36.8984 22.623 35.8389 24 35.8389C25.3477 35.8389 26.1973 36.8301 26.1973 38.3438V38.6172H22.3936V38.6562C22.3936 39.8037 23.043 40.5166 24.0537 40.5166C24.8203 40.5166 25.3525 40.1162 25.4941 39.5596Z" fill="#20354E"/>
</svg>
