<svg width="38" height="43" viewBox="0 0 38 43" fill="none" xmlns="http://www.w3.org/2000/svg">
<path d="M29.5 17.5C29.5 18.1188 29.2542 18.7123 28.8166 19.1499C28.379 19.5875 27.7855 19.8333 27.1667 19.8333H13.1667L8.5 24.5V5.83333C8.5 5.21449 8.74583 4.621 9.18342 4.18342C9.621 3.74583 10.2145 3.5 10.8333 3.5H27.1667C27.7855 3.5 28.379 3.74583 28.8166 4.18342C29.2542 4.621 29.5 5.21449 29.5 5.83333V17.5Z" stroke="#20354E" stroke-width="2" stroke-linecap="round" stroke-linejoin="round"/>
<path d="M7.60352 41H6.97852V35.2188H6.94922L4.49805 40.9658H3.91699L1.4707 35.2188H1.44141V41H0.816406V33.9541H1.58301L4.19531 40.1211H4.22461L6.83203 33.9541H7.60352V41ZM10.8262 36.4053C9.91797 36.4053 9.28809 37.1035 9.23438 38.1045H12.3691C12.3545 37.1035 11.7441 36.4053 10.8262 36.4053ZM12.3301 39.5596H12.9697C12.8184 40.4385 11.9932 41.083 10.875 41.083C9.44922 41.083 8.56543 40.0869 8.56543 38.4756C8.56543 36.8984 9.45898 35.8389 10.8359 35.8389C12.1836 35.8389 13.0332 36.8301 13.0332 38.3438V38.6172H9.22949V38.6562C9.22949 39.8037 9.87891 40.5166 10.8896 40.5166C11.6562 40.5166 12.1885 40.1162 12.3301 39.5596ZM13.7949 37.2793C13.7949 36.4395 14.5469 35.8389 15.6211 35.8389C16.6611 35.8389 17.4033 36.4492 17.4668 37.3428H16.8467C16.7686 36.7422 16.3047 36.3711 15.6016 36.3711C14.9082 36.3711 14.4346 36.7373 14.4346 37.2451C14.4346 37.6602 14.7324 37.9141 15.4111 38.0801L16.1631 38.2607C17.1787 38.5146 17.5596 38.8857 17.5596 39.6133C17.5596 40.4727 16.7539 41.083 15.6064 41.083C14.5176 41.083 13.7314 40.4727 13.6484 39.5791H14.293C14.3857 40.1797 14.8838 40.5508 15.6455 40.5508C16.4072 40.5508 16.9102 40.1943 16.9102 39.6621C16.9102 39.2227 16.6562 38.9883 15.9775 38.8223L15.1523 38.6172C14.2344 38.3877 13.7949 37.9531 13.7949 37.2793ZM18.3262 37.2793C18.3262 36.4395 19.0781 35.8389 20.1523 35.8389C21.1924 35.8389 21.9346 36.4492 21.998 37.3428H21.3779C21.2998 36.7422 20.8359 36.3711 20.1328 36.3711C19.4395 36.3711 18.9658 36.7373 18.9658 37.2451C18.9658 37.6602 19.2637 37.9141 19.9424 38.0801L20.6943 38.2607C21.71 38.5146 22.0908 38.8857 22.0908 39.6133C22.0908 40.4727 21.2852 41.083 20.1377 41.083C19.0488 41.083 18.2627 40.4727 18.1797 39.5791H18.8242C18.917 40.1797 19.415 40.5508 20.1768 40.5508C20.9385 40.5508 21.4414 40.1943 21.4414 39.6621C21.4414 39.2227 21.1875 38.9883 20.5088 38.8223L19.6836 38.6172C18.7656 38.3877 18.3262 37.9531 18.3262 37.2793ZM24.5957 40.5264C25.4844 40.5264 26.1826 39.8965 26.1826 39.0908V38.5293L24.6787 38.6318C23.8779 38.6855 23.4336 39.0322 23.4336 39.5938C23.4336 40.1455 23.9072 40.5264 24.5957 40.5264ZM24.4639 41.083C23.4629 41.083 22.7793 40.4824 22.7793 39.5938C22.7793 38.7246 23.4287 38.1973 24.6006 38.1191L26.1826 38.0215V37.582C26.1826 36.8496 25.7188 36.4102 24.9277 36.4102C24.1807 36.4102 23.7021 36.7764 23.5898 37.3916H22.9648C23.0381 36.4834 23.7852 35.8389 24.9424 35.8389C26.0996 35.8389 26.8271 36.4883 26.8271 37.5234V41H26.2119V40.0332H26.1973C25.9141 40.6631 25.2207 41.083 24.4639 41.083ZM29.918 40.4775C30.8945 40.4775 31.5537 39.6621 31.5537 38.4463C31.5537 37.2305 30.8945 36.4102 29.918 36.4102C28.9609 36.4102 28.3213 37.2158 28.3213 38.4512C28.3213 39.6768 28.9609 40.4775 29.918 40.4775ZM29.9814 42.8799C28.873 42.8799 28.0381 42.2695 27.8965 41.4688H28.5654C28.7314 41.9668 29.2734 42.3232 30.0107 42.3232C30.9629 42.3232 31.5537 41.7715 31.5537 40.9414V39.9209H31.5391C31.2656 40.5752 30.6113 41.0488 29.8008 41.0488C28.5166 41.0488 27.6572 40.0186 27.6572 38.4463C27.6572 36.8691 28.5166 35.8389 29.8154 35.8389C30.626 35.8389 31.2754 36.3027 31.5732 36.9961H31.5879V35.9219H32.2031V40.917C32.2031 42.0986 31.3389 42.8799 29.9814 42.8799ZM35.3281 36.4053C34.4199 36.4053 33.79 37.1035 33.7363 38.1045H36.8711C36.8564 37.1035 36.2461 36.4053 35.3281 36.4053ZM36.832 39.5596H37.4717C37.3203 40.4385 36.4951 41.083 35.377 41.083C33.9512 41.083 33.0674 40.0869 33.0674 38.4756C33.0674 36.8984 33.9609 35.8389 35.3379 35.8389C36.6855 35.8389 37.5352 36.8301 37.5352 38.3438V38.6172H33.7314V38.6562C33.7314 39.8037 34.3809 40.5166 35.3916 40.5166C36.1582 40.5166 36.6904 40.1162 36.832 39.5596Z" fill="#20354E"/>
</svg>
