<svg width="35" height="35" viewBox="0 0 35 35" fill="none" xmlns="http://www.w3.org/2000/svg">
<path d="M30.1328 6.78125C29.0938 7.05469 28.0547 7.54688 27.0703 8.25781C27.0156 8.25781 27.0156 8.3125 26.9609 8.3125C24.8828 10.6094 22.9688 11.9219 21.1641 12.25C20.6172 12.3594 20.0703 12.5781 19.5234 12.8516C19.1953 13.0156 18.8125 12.9062 18.6484 12.5781C18.5937 12.4141 18.5391 12.1953 18.7578 11.9766C18.7578 11.9766 18.8125 11.9219 18.8672 11.8672L21.4922 10.1172C21.875 9.89844 22.0938 9.51562 22.1484 9.13281C22.1484 9.13281 22.1484 9.13281 22.1484 9.07812C22.2031 8.64062 22.0938 8.20312 21.8203 7.875C21.2734 7.21875 20.125 7.16406 19.5234 7.76562C18.7031 8.58594 18.1016 9.57031 17.7188 10.6094C17.5 11.2656 17.0625 12.3047 16.4609 13.6172C16.1875 14.2734 15.5312 14.6562 14.875 14.7109L16.3516 8.75C17.3906 4.375 21.3281 1.25781 25.9219 1.25781H30.1328V6.78125ZM21.0547 8.91406C21.0547 9.02344 20.9453 9.13281 20.8359 9.1875L18.9219 10.5C19.25 9.78906 19.6875 9.13281 20.2344 8.58594C20.3438 8.47656 20.4531 8.47656 20.5625 8.47656M33.8516 7.92969H32.3203C31.7188 7.92969 31.2266 7.4375 31.2266 6.83594V1.09375C31.2266 0.492188 31.7188 0 32.3203 0H33.8516V7.92969ZM8.25781 33.7422L6.61719 35L1.14844 27.6719L2.78906 26.4141C3.22656 26.0859 3.9375 26.1953 4.26563 26.6328L8.25781 31.9922L8.47656 32.2656C8.85938 32.7578 8.75 33.4141 8.25781 33.7422ZM26.6875 25.7031C25.0469 27.0703 23.1328 28.2734 21.0547 29.3672C19.8516 29.9688 18.4844 30.3516 17.1172 30.3516L10.9375 30.5156C10.7734 30.5156 10.5547 30.5703 10.3359 30.625L8.96875 31.0625L5.30469 26.1953L6.07031 25.1016C6.61719 24.3906 7.32813 23.7891 8.36719 23.0781C9.78906 22.2031 11.5938 22.3672 12.7969 23.5156C13.3984 24.0625 14.1094 24.3906 14.9297 24.3906H17.5C18.0469 24.3906 18.5391 24.8828 18.5391 25.4844C18.5391 25.7578 18.4297 25.9766 18.3203 26.1406C18.1016 26.4141 17.8281 26.5234 17.5 26.5234H14.3828C14.0547 26.5234 13.8359 26.7422 13.8359 27.0703C13.8359 27.3984 14.0547 27.6172 14.3828 27.6172H17.5C18.1016 27.6172 18.6484 27.3984 19.0859 26.9609C21.3828 26.4141 23.1328 25.7578 24.5 24.9375C25.2109 24.5 26.1406 24.5547 26.7422 25.1016C26.8516 25.2109 26.8516 25.3203 26.8516 25.375C26.7969 25.5391 26.7422 25.6484 26.6875 25.7031Z" fill="#FFCE50"/>
<path d="M23.7344 16.5703C23.7344 18.1562 22.75 19.5234 21.3828 20.125V23.625C21.3828 23.9531 21.1094 24.1719 20.8359 24.1719C20.5078 24.1719 20.2891 23.8984 20.2891 23.625V20.3984C20.1797 20.3984 20.0703 20.3984 19.9063 20.3984C19.7969 20.3984 19.6328 20.3984 19.5234 20.3984V21.9297C19.5234 22.2578 19.25 22.4766 18.9766 22.4766C18.6484 22.4766 18.4297 22.2031 18.4297 21.9297V20.0703C17.0625 19.4688 16.0781 18.1016 16.0781 16.5156C16.0781 16.1328 16.1328 15.75 16.2422 15.4219C16.7344 15.0938 17.1719 14.6562 17.4453 14.1094C17.5547 13.8906 17.6641 13.6172 17.7734 13.3984C17.8281 13.3984 17.8281 13.3437 17.8828 13.3437C18.2109 13.7812 18.7031 14.0547 19.25 14.0547C19.5234 14.0547 19.8516 13.9453 20.0703 13.8359C20.5078 13.5625 20.9453 13.3984 21.3828 13.3437C21.5469 13.2891 21.6563 13.2891 21.8203 13.2344C22.9688 13.8906 23.7344 15.1484 23.7344 16.5703Z" fill="#FFCE50"/>
</svg>
