<svg width="29" height="43" viewBox="0 0 29 43" fill="none" xmlns="http://www.w3.org/2000/svg">
<path d="M12.8333 22.1667C17.988 22.1667 22.1667 17.988 22.1667 12.8333C22.1667 7.67868 17.988 3.5 12.8333 3.5C7.67868 3.5 3.5 7.67868 3.5 12.8333C3.5 17.988 7.67868 22.1667 12.8333 22.1667Z" stroke="#20354E" stroke-width="2" stroke-linecap="round" stroke-linejoin="round"/>
<path d="M24.5008 24.5L19.4258 19.425" stroke="#20354E" stroke-width="2" stroke-linecap="round" stroke-linejoin="round"/>
<path d="M0.447266 39.0859H1.11621C1.18945 39.9307 1.98535 40.5068 3.08887 40.5068C4.14355 40.5068 4.90039 39.9307 4.90039 39.1396C4.90039 38.4805 4.44629 38.0898 3.40137 37.8262L2.52734 37.6016C1.22363 37.2695 0.642578 36.7178 0.642578 35.79C0.642578 34.6523 1.66797 33.8418 3.05469 33.8418C4.42676 33.8418 5.43262 34.6523 5.47168 35.7705H4.80273C4.73926 34.9746 4.03613 34.4473 3.03516 34.4473C2.05859 34.4473 1.33594 34.9893 1.33594 35.7656C1.33594 36.3711 1.77539 36.7275 2.81055 36.9912L3.57227 37.1865C4.98828 37.543 5.58398 38.085 5.58398 39.0664C5.58398 40.3018 4.58789 41.1123 3.03027 41.1123C1.55566 41.1123 0.520508 40.2969 0.447266 39.0859ZM8.46484 36.4053C7.55664 36.4053 6.92676 37.1035 6.87305 38.1045H10.0078C9.99316 37.1035 9.38281 36.4053 8.46484 36.4053ZM9.96875 39.5596H10.6084C10.457 40.4385 9.63184 41.083 8.51367 41.083C7.08789 41.083 6.2041 40.0869 6.2041 38.4756C6.2041 36.8984 7.09766 35.8389 8.47461 35.8389C9.82227 35.8389 10.6719 36.8301 10.6719 38.3438V38.6172H6.86816V38.6562C6.86816 39.8037 7.51758 40.5166 8.52832 40.5166C9.29492 40.5166 9.82715 40.1162 9.96875 39.5596ZM13.1719 40.5264C14.0605 40.5264 14.7588 39.8965 14.7588 39.0908V38.5293L13.2549 38.6318C12.4541 38.6855 12.0098 39.0322 12.0098 39.5938C12.0098 40.1455 12.4834 40.5264 13.1719 40.5264ZM13.04 41.083C12.0391 41.083 11.3555 40.4824 11.3555 39.5938C11.3555 38.7246 12.0049 38.1973 13.1768 38.1191L14.7588 38.0215V37.582C14.7588 36.8496 14.2949 36.4102 13.5039 36.4102C12.7568 36.4102 12.2783 36.7764 12.166 37.3916H11.541C11.6143 36.4834 12.3613 35.8389 13.5186 35.8389C14.6758 35.8389 15.4033 36.4883 15.4033 37.5234V41H14.7881V40.0332H14.7734C14.4902 40.6631 13.7969 41.083 13.04 41.083ZM16.4873 41V35.9219H17.0977V36.8252H17.1123C17.2979 36.2051 17.7715 35.8389 18.3965 35.8389C18.5674 35.8389 18.7188 35.873 18.7969 35.8926V36.5273C18.7139 36.4883 18.5332 36.4541 18.3135 36.4541C17.5908 36.4541 17.1318 37.0156 17.1318 37.8359V41H16.4873ZM23.333 37.5283H22.6982C22.5615 36.9033 22.0488 36.4102 21.248 36.4102C20.2568 36.4102 19.6074 37.2061 19.6074 38.4609C19.6074 39.7354 20.2617 40.5117 21.2529 40.5117C22.0195 40.5117 22.5518 40.0869 22.6982 39.4277H23.3379C23.1963 40.3994 22.3711 41.083 21.248 41.083C19.8613 41.083 18.9482 40.0869 18.9482 38.4609C18.9482 36.8594 19.8613 35.8389 21.2432 35.8389C22.4395 35.8389 23.2061 36.6201 23.333 37.5283ZM24.1875 41V33.9541H24.8369V36.8594H24.8516C25.1104 36.2344 25.7158 35.8389 26.5264 35.8389C27.6396 35.8389 28.3428 36.5811 28.3428 37.7188V41H27.6934V37.8262C27.6934 36.9473 27.2002 36.415 26.3408 36.415C25.4277 36.415 24.8369 37.0547 24.8369 38.0117V41H24.1875Z" fill="#20354E"/>
</svg>
