<svg width="35" height="35" viewBox="0 0 35 35" fill="none" xmlns="http://www.w3.org/2000/svg">
<path d="M28.7002 2.79998H15.4541C14.402 1.39998 12.6779 0.173584 10.7277 0.173584C7.5238 0.173584 4.9268 2.67678 4.9268 5.88068C4.9268 9.08528 7.5238 11.5066 10.7277 11.5066C13.1644 11.5066 15.249 9.79998 16.1093 7.69998H18.0378L19.4357 6.30138L20.8329 7.69998H21.7044L23.1016 6.30138L24.4995 7.69998H25.3703L26.7682 6.30138L28.1661 7.69998H28.7002V7.89668L28.5784 7.92538L31.3364 5.22198L28.7002 2.79998ZM8.8503 7.42698C8.40464 7.42671 7.97735 7.2494 7.66242 6.93408C7.34749 6.61876 7.17072 6.19124 7.171 5.74558C7.17127 5.29993 7.34858 4.87263 7.6639 4.5577C7.97922 4.24277 8.40674 4.06601 8.8524 4.06628C9.07306 4.06642 9.29154 4.11002 9.49536 4.19459C9.69917 4.27917 9.88434 4.40306 10.0403 4.55919C10.1962 4.71532 10.3199 4.90064 10.4042 5.10456C10.4885 5.30848 10.5318 5.52702 10.5317 5.74768C10.5316 5.96835 10.488 6.18683 10.4034 6.39065C10.3188 6.59446 10.1949 6.77963 10.0388 6.93556C9.88266 7.0915 9.69734 7.21516 9.49342 7.29948C9.28949 7.3838 9.07096 7.42712 8.8503 7.42698ZM30.1002 21H29.7131L25.4123 13.2125C25.2268 12.8758 24.7592 12.6 24.3742 12.6H11.3262C10.9412 12.6 10.4736 12.8758 10.2881 13.2125L5.9866 21H5.6002C4.8302 21 4.2002 21.63 4.2002 22.4V29.4C4.2002 30.17 4.8302 30.8 5.6002 30.8H7.0002V32.9C7.0002 34.055 7.9452 35 9.1002 35H9.8002C10.9552 35 11.9002 34.055 11.9002 32.9V30.8H23.8002V32.9C23.8002 34.055 24.7452 35 25.9002 35H26.6002C27.7552 35 28.7002 34.055 28.7002 32.9V30.8H30.1002C30.8702 30.8 31.5002 30.17 31.5002 29.4V22.4C31.5002 21.63 30.8702 21 30.1002 21ZM8.0502 26.6C7.58607 26.6 7.14095 26.4156 6.81276 26.0874C6.48457 25.7592 6.3002 25.3141 6.3002 24.85C6.3002 24.3859 6.48457 23.9407 6.81276 23.6125C7.14095 23.2844 7.58607 23.1 8.0502 23.1C8.51432 23.1 8.95944 23.2844 9.28763 23.6125C9.61582 23.9407 9.8002 24.3859 9.8002 24.85C9.8002 25.3141 9.61582 25.7592 9.28763 26.0874C8.95944 26.4156 8.51432 26.6 8.0502 26.6ZM9.4502 21L12.2873 15.3265C12.4595 14.9814 12.9152 14.7 13.3002 14.7H22.4002C22.7852 14.7 23.2409 14.9814 23.4131 15.3265L26.2502 21H9.4502ZM27.6502 26.6C27.1861 26.6 26.7409 26.4156 26.4128 26.0874C26.0846 25.7592 25.9002 25.3141 25.9002 24.85C25.9002 24.3859 26.0846 23.9407 26.4128 23.6125C26.7409 23.2844 27.1861 23.1 27.6502 23.1C28.1143 23.1 28.5594 23.2844 28.8876 23.6125C29.2158 23.9407 29.4002 24.3859 29.4002 24.85C29.4002 25.3141 29.2158 25.7592 28.8876 26.0874C28.5594 26.4156 28.1143 26.6 27.6502 26.6Z" fill="#FFCE50"/>
</svg>
